<svg xmlns="http://www.w3.org/2000/svg" xmlns:xlink="http://www.w3.org/1999/xlink" viewBox="0 0 152 142"><defs><style>.cls-1,.cls-6{opacity:0.8;}.cls-2{fill:url(#未命名的渐变_2);}.cls-3{fill:url(#未命名的渐变_2-2);}.cls-4{fill:url(#未命名的渐变_4);}.cls-5{fill:url(#未命名的渐变_4-2);}.cls-6{isolation:isolate;fill:url(#未命名的渐变_5);}.cls-7{fill:url(#未命名的渐变_6);}</style><linearGradient id="未命名的渐变_2" x1="-502.32" y1="710.41" x2="-502.32" y2="711.41" gradientTransform="matrix(34, 0, 0, -78, 17096, 55537)" gradientUnits="userSpaceOnUse"><stop offset="0" stop-color="#fff" stop-opacity="0.5"/><stop offset="1" stop-color="#f2f3f5"/></linearGradient><linearGradient id="未命名的渐变_2-2" x1="-500.85" y1="711.07" x2="-500.85" y2="712.07" gradientTransform="matrix(31, 0, 0, -91, 15663, 64807)" xlink:href="#未命名的渐变_2"/><linearGradient id="未命名的渐变_4" x1="-500.59" y1="698.82" x2="-500.59" y2="699.79" gradientTransform="matrix(30.52, 0, 0, -22.08, 15361.22, 15452.57)" gradientUnits="userSpaceOnUse"><stop offset="0" stop-color="#f2f3f5" stop-opacity="0.3"/><stop offset="1" stop-color="#f2f3f5"/></linearGradient><linearGradient id="未命名的渐变_4-2" x1="-483.1" y1="682.48" x2="-483.1" y2="683.45" gradientTransform="matrix(15, 0, 0, -11, 7264, 7535)" xlink:href="#未命名的渐变_4"/><radialGradient id="未命名的渐变_5" cx="-552.55" cy="783.26" r="2.97" gradientTransform="matrix(-14.72, 0, 0, 5.28, -8055.6, -4000.96)" gradientUnits="userSpaceOnUse"><stop offset="0" stop-color="#ebedf0"/><stop offset="1" stop-color="#f2f3f5" stop-opacity="0.3"/></radialGradient><linearGradient id="未命名的渐变_6" x1="-509.68" y1="710.58" x2="-509.68" y2="709.58" gradientTransform="matrix(66, 0, 0, -66, 33717, 46952)" gradientUnits="userSpaceOnUse"><stop offset="0" stop-color="#eaedf1"/><stop offset="1" stop-color="#dcdee0"/></linearGradient></defs><g id="图层_2" data-name="图层 2"><g id="图层_1-2" data-name="图层 1"><g class="cls-1"><path class="cls-2" d="M34,125V47H14V67H0v58Z"/><path class="cls-3" d="M121,9h22V23h9v77H121Z"/></g><g class="cls-1"><path class="cls-4" d="M85,0c3,0,7,3,8,6a8,8,0,1,1-1,16H78a7,7,0,0,1-8-5.86c0-.05,0-.09,0-.14,0-4,3-7,6-7A9,9,0,0,1,85,0Z"/><path class="cls-5" d="M17,17c2,0,3,1,4,3a4.3,4.3,0,0,1,4,4,4,4,0,0,1-4,3v1H14V27l-1,1c-2,0-3-2-3-4a3.19,3.19,0,0,1,3-3A4.3,4.3,0,0,1,17,17Z"/></g><ellipse class="cls-6" cx="78" cy="134" rx="46" ry="8"/><path class="cls-7" d="M57,54,78,75,99,54h3l9,9v3L90,87l21,21v3l-9,9H99L78,99,57,120H54l-9-9v-3L66,87,45,66V63l9-9Z"/></g></g></svg>